<svg width="93" height="28" viewBox="0 0 93 28" fill="none" xmlns="http://www.w3.org/2000/svg">
<path d="M2.0498 6.70215C10.1754 7.42151 18.7362 10.8554 20.9111 13.8574C21.0555 14.0567 21.0157 14.3259 20.8418 14.5L16.9912 18.3506C16.7784 18.5634 16.7767 18.908 16.9873 19.123L22.7051 24.9629C20.3151 26.8632 17.2907 28 14 28C11.2905 28 8.7614 27.2292 6.61816 25.8965L17.9414 14.4531C18.1524 14.2399 18.1548 13.8968 17.9326 13.6953C14.7091 10.7719 7.64279 8.16758 1.64941 7.40234C1.77653 7.16489 1.90965 6.93117 2.0498 6.70215ZM1.5 7.68848C7.54862 9.22801 11.7739 11.0342 14.04 13.6943C14.2185 13.9038 14.1961 14.2141 14.001 14.4082L4.28125 24.0762C1.64199 21.53 0 17.9569 0 14C0 11.7294 0.54054 9.58494 1.5 7.68848ZM14 0C21.732 0 28 6.26801 28 14C28 17.3798 26.8017 20.4793 24.8076 22.8984L20.9746 19.1172C20.7603 18.9056 20.7563 18.5611 20.9658 18.3447L24.624 14.5713C24.8241 14.3649 24.8327 14.0396 24.6299 13.8359C20.7595 9.94935 10.9162 6.6535 2.13965 6.55957C4.61674 2.61929 9.00218 0 14 0Z" fill="#7F56D9"/>
<path d="M37.6249 21V8.13H42.8449C45.3829 8.13 47.0929 9.498 47.0929 11.784C47.0929 13.638 46.2109 14.664 44.7889 15.024V15.06C47.6509 15.618 46.6069 20.676 47.2729 20.892V21H45.5269C44.9689 20.46 46.1929 15.798 42.9349 15.798H39.2449V21H37.6249ZM39.2449 9.57V14.358H42.4669C43.7989 14.358 45.4729 14.196 45.4729 11.964C45.4729 9.732 43.7989 9.57 42.4669 9.57H39.2449ZM52.6177 19.992C54.4537 19.992 55.1377 18.804 55.2997 18.174H56.7397C56.2717 19.884 54.9577 21.252 52.6717 21.252C49.8817 21.252 48.1897 19.29 48.1897 16.41C48.1897 13.35 49.9177 11.568 52.5997 11.568C55.4797 11.568 56.8837 13.53 56.8837 16.788H49.6297C49.6297 18.444 50.6197 19.992 52.6177 19.992ZM52.5997 12.828C50.8717 12.828 49.6297 14.052 49.6297 15.528H55.4437C55.4437 14.052 54.3277 12.828 52.5997 12.828ZM57.1796 11.82H58.7456L61.2836 19.56H61.3016L63.8396 11.82H65.4056L62.1116 21H60.4736L57.1796 11.82ZM70.1204 21V9.57H65.8364V8.13H76.0244V9.57H71.7404V21H70.1204ZM80.9585 14.16C80.9585 13.44 80.5625 12.828 79.0865 12.828C77.3405 12.828 76.7645 13.332 76.6745 14.664H75.2345C75.3245 12.9 76.4225 11.568 79.0865 11.568C80.8325 11.568 82.3985 12.252 82.3985 14.466V18.93C82.3985 19.65 82.5245 20.046 83.4425 19.938V20.946C83.0645 21.072 82.8665 21.09 82.5965 21.09C81.7325 21.09 81.2105 20.856 80.9585 19.848H80.9225C80.3465 20.712 79.3205 21.252 77.8085 21.252C75.9545 21.252 74.7845 20.19 74.7845 18.642C74.7845 16.554 76.3325 16.014 78.7085 15.564C80.2565 15.276 80.9585 15.078 80.9585 14.16ZM77.9525 19.992C79.6625 19.992 80.9585 19.218 80.9585 17.454V15.924C80.6885 16.194 79.8065 16.446 78.8345 16.644C77.0525 17.022 76.2245 17.472 76.2245 18.57C76.2245 19.47 76.7645 19.992 77.9525 19.992ZM83.9423 11.82H85.6523L88.0283 15.33H88.0643L90.4403 11.82H92.1503L88.9103 16.302L92.4743 21H90.7643L88.0643 17.256H88.0283L85.3463 21H83.6363L87.1823 16.302L83.9423 11.82Z" fill="#F0F1F1"/>
</svg>
