<svg width="32" height="32" viewBox="0 0 32 32" fill="none" xmlns="http://www.w3.org/2000/svg">
<rect x="0.5" y="0.5" width="31" height="31" rx="3.5" fill="#FCFCFD"/>
<rect x="0.5" y="0.5" width="31" height="31" rx="3.5" stroke="#E4E7EC"/>
<g clip-path="url(#clip0_250_2799)">
<path d="M19.9997 9.33325L20.4115 10.157C20.5885 10.511 20.677 10.688 20.7953 10.8413C20.9002 10.9774 21.0222 11.0994 21.1583 11.2043C21.3116 11.3226 21.4886 11.4111 21.8426 11.5881L22.6663 11.9999L21.8426 12.4118C21.4886 12.5888 21.3116 12.6773 21.1583 12.7955C21.0222 12.9004 20.9002 13.0224 20.7953 13.1585C20.677 13.3119 20.5885 13.4889 20.4115 13.8429L19.9997 14.6666L19.5878 13.8429C19.4108 13.4889 19.3223 13.3119 19.2041 13.1585C19.0992 13.0224 18.9772 12.9004 18.8411 12.7955C18.6877 12.6773 18.5107 12.5888 18.1567 12.4118L17.333 11.9999L18.1567 11.5881C18.5107 11.4111 18.6877 11.3226 18.8411 11.2043C18.9772 11.0994 19.0992 10.9774 19.2041 10.8413C19.3223 10.688 19.4108 10.511 19.5878 10.157L19.9997 9.33325Z" stroke="#182230" stroke-width="0.761905" stroke-linecap="round" stroke-linejoin="round"/>
<path d="M21.9997 16.9261C21.1257 18.4593 19.476 19.4929 17.585 19.4929C14.7804 19.4929 12.5068 17.2194 12.5068 14.4148C12.5068 12.5236 13.5407 10.8739 15.074 9.99992C11.8529 10.3053 9.33301 13.0179 9.33301 16.3189C9.33301 19.8247 12.175 22.6666 15.6807 22.6666C18.9816 22.6666 21.694 20.147 21.9997 16.9261Z" stroke="#182230" stroke-width="0.761905" stroke-linecap="round" stroke-linejoin="round"/>
</g>
<defs>
<clipPath id="clip0_250_2799">
<rect width="16" height="16" fill="white" transform="translate(8 8)"/>
</clipPath>
</defs>
</svg>
