<svg width="32" height="32" viewBox="0 0 32 32" fill="none" xmlns="http://www.w3.org/2000/svg">
<rect width="32" height="32" rx="16" fill="#53389E"/>
<path d="M14.0007 18.6666L16.0007 16.6666M16.0007 16.6666L18.0007 18.6666M16.0007 16.6666V21.3333M22.6673 14H9.33398M11.6673 20H11.4673C10.7206 20 10.3472 20 10.062 19.8546C9.81111 19.7268 9.60714 19.5228 9.47931 19.2719C9.33398 18.9867 9.33398 18.6134 9.33398 17.8666V12.8C9.33398 12.0532 9.33398 11.6799 9.47931 11.3946C9.60714 11.1438 9.81111 10.9398 10.062 10.812C10.3472 10.6666 10.7206 10.6666 11.4673 10.6666H20.534C21.2807 10.6666 21.6541 10.6666 21.9393 10.812C22.1902 10.9398 22.3942 11.1438 22.522 11.3946C22.6673 11.6799 22.6673 12.0532 22.6673 12.8V17.8666C22.6673 18.6134 22.6673 18.9867 22.522 19.2719C22.3942 19.5228 22.1902 19.7268 21.9393 19.8546C21.6541 20 21.2807 20 20.534 20H20.334" stroke="#E9D7FE" stroke-width="1.25" stroke-linecap="round" stroke-linejoin="round"/>
</svg>
