<svg width="13" height="14" viewBox="0 0 13 14" fill="none" xmlns="http://www.w3.org/2000/svg">
<path d="M12.5 5L12.5 1M12.5 1H8.5M12.5 1L7.16667 6.33333M5.16667 2.33333H3.7C2.5799 2.33333 2.01984 2.33333 1.59202 2.55132C1.21569 2.74307 0.909734 3.04903 0.717987 3.42535C0.5 3.85318 0.5 4.41323 0.5 5.53333V9.8C0.5 10.9201 0.5 11.4802 0.717987 11.908C0.909734 12.2843 1.21569 12.5903 1.59202 12.782C2.01984 13 2.5799 13 3.7 13H7.96667C9.08677 13 9.64682 13 10.0746 12.782C10.451 12.5903 10.7569 12.2843 10.9487 11.908C11.1667 11.4802 11.1667 10.9201 11.1667 9.8V8.33333" stroke="#F9F5FF" stroke-linecap="round" stroke-linejoin="round"/>
</svg>
