<svg width="32" height="32" viewBox="0 0 32 32" fill="none" xmlns="http://www.w3.org/2000/svg">
<path fill-rule="evenodd" clip-rule="evenodd" d="M32 16C32 19.8622 30.6316 23.4048 28.3531 26.1693L23.9724 21.8486C23.7271 21.6067 23.7227 21.2123 23.9625 20.965L28.1435 16.6534C28.3721 16.4176 28.3821 16.0448 28.1503 15.8121C23.7267 11.3699 12.4755 7.60284 2.44459 7.49597C5.27557 2.99289 10.2883 0 16 0C24.8366 0 32 7.16344 32 16ZM16 32C19.7615 32 23.2198 30.702 25.9515 28.5295L19.4149 21.8553C19.1742 21.6095 19.1762 21.2158 19.4195 20.9726L23.8204 16.5717C24.0193 16.3728 24.0652 16.0646 23.9001 15.8368C21.4145 12.4058 11.6305 8.48016 2.34406 7.65803C2.18383 7.91976 2.03092 8.18645 1.88561 8.45782C8.73564 9.33216 16.8125 12.3103 20.4967 15.6516C20.7506 15.8819 20.7477 16.274 20.5066 16.5176L7.56387 29.5979C10.0131 31.1206 12.9038 32 16 32ZM4.89337 27.5171C1.87649 24.6071 0 20.5227 0 16C0 13.404 0.61826 10.9524 1.71557 8.78436C8.62912 10.544 13.4578 12.6105 16.0478 15.6511C16.2518 15.8905 16.2256 16.2441 16.0026 16.4659L4.89337 27.5171Z" fill="white"/>
</svg>
