<svg width="32" height="32" viewBox="0 0 32 32" fill="none" xmlns="http://www.w3.org/2000/svg">
<rect width="32" height="32" rx="16" fill="#F4EBFF"/>
<path d="M13.9997 18.6666L15.9997 16.6666M15.9997 16.6666L17.9997 18.6666M15.9997 16.6666V21.3333M22.6663 14H9.33301M11.6663 20H11.4663C10.7196 20 10.3462 20 10.061 19.8546C9.81014 19.7268 9.60616 19.5228 9.47833 19.2719C9.33301 18.9867 9.33301 18.6134 9.33301 17.8666V12.8C9.33301 12.0532 9.33301 11.6799 9.47833 11.3946C9.60616 11.1438 9.81014 10.9398 10.061 10.812C10.3462 10.6666 10.7196 10.6666 11.4663 10.6666H20.533C21.2797 10.6666 21.6531 10.6666 21.9383 10.812C22.1892 10.9398 22.3932 11.1438 22.521 11.3946C22.6663 11.6799 22.6663 12.0532 22.6663 12.8V17.8666C22.6663 18.6134 22.6663 18.9867 22.521 19.2719C22.3932 19.5228 22.1892 19.7268 21.9383 19.8546C21.6531 20 21.2797 20 20.533 20H20.333" stroke="#6941C6" stroke-width="1.25" stroke-linecap="round" stroke-linejoin="round"/>
</svg>
