<svg width="27" height="26" viewBox="0 0 27 26" fill="none" xmlns="http://www.w3.org/2000/svg">
<path d="M26.15 12.7437C26.15 12.5594 26.1437 12.3781 26.1375 12.1969V1.8375L23.275 4.70312C20.9312 1.83125 17.3656 0 13.3719 0C9.21562 0 5.52187 1.98438 3.1875 5.05625L7.88125 9.8C8.34062 8.95 8.99375 8.21875 9.78125 7.66563C10.6 7.025 11.7625 6.50312 13.3688 6.50312C13.5625 6.50312 13.7125 6.525 13.8219 6.56875C15.8125 6.725 17.5375 7.825 18.5531 9.41875L15.2313 12.7406C19.4406 12.725 24.1969 12.7156 26.15 12.7437Z" fill="#1C3AA9"/>
<path d="M13.2967 0C13.1123 0 12.9311 0.00625 12.7498 0.0125H2.3873L5.25293 2.875C2.38418 5.22188 0.549805 8.7875 0.549805 12.7812C0.549805 16.9375 2.53418 20.6312 5.60605 22.9656L10.3498 18.2719C9.4998 17.8125 8.76855 17.1594 8.21543 16.3719C7.5748 15.5531 7.05293 14.3906 7.05293 12.7844C7.05293 12.5906 7.0748 12.4406 7.11856 12.3312C7.27481 10.3406 8.3748 8.61563 9.96855 7.6L13.2904 10.9219C13.2779 6.70938 13.2654 1.95625 13.2967 0Z" fill="#4285F4"/>
<path d="M0.552734 12.7812C0.552734 12.9656 0.558984 13.1469 0.565234 13.3281V23.6875L3.42773 20.825C5.77148 23.6937 9.33711 25.525 13.3309 25.525C17.4871 25.525 21.1809 23.5406 23.5152 20.4687L18.8215 15.725C18.3621 16.575 17.709 17.3063 16.9215 17.8594C16.1027 18.5 14.9402 19.0219 13.334 19.0219C13.1402 19.0219 12.9902 19 12.8809 18.9562C10.8902 18.8 9.16523 17.7 8.14961 16.1062L11.4715 12.7844C7.26211 12.8 2.50586 12.8094 0.552734 12.7812Z" fill="#ABABAB"/>
</svg>
