<svg width="93" height="28" viewBox="0 0 93 28" fill="none" xmlns="http://www.w3.org/2000/svg">
<path fill-rule="evenodd" clip-rule="evenodd" d="M28 14C28 17.3794 26.8026 20.4792 24.809 22.8982L20.9758 19.1175C20.7612 18.9058 20.7574 18.5608 20.9672 18.3444L24.6255 14.5718C24.8256 14.3654 24.8343 14.0392 24.6315 13.8356C20.7608 9.94869 10.916 6.65249 2.13902 6.55898C4.61612 2.61878 9.00224 0 14 0C21.732 0 28 6.26801 28 14ZM14 28C17.2913 28 20.3173 26.8643 22.7075 24.9633L16.988 19.1234C16.7774 18.9084 16.7792 18.5639 16.992 18.351L20.8428 14.5003C21.0169 14.3262 21.057 14.0566 20.9126 13.8572C18.7377 10.8551 10.1767 7.42014 2.05105 6.70078C1.91085 6.92979 1.77706 7.16314 1.64991 7.40058C7.64369 8.16563 14.711 10.7715 17.9346 13.6952C18.1568 13.8967 18.1542 14.2397 17.9433 14.4529L6.61839 25.8981C8.76144 27.2305 11.2909 28 14 28ZM4.2817 24.0775C1.64193 21.5312 0 17.9573 0 14C0 11.7285 0.540978 9.58332 1.50113 7.68631C7.55048 9.22596 11.7756 11.0342 14.0418 13.6947C14.2203 13.9042 14.1974 14.2136 14.0023 14.4077L4.2817 24.0775Z" fill="#7F56D9"/>
<path d="M37.6249 21V8.13H42.8449C45.3829 8.13 47.0929 9.498 47.0929 11.784C47.0929 13.638 46.2109 14.664 44.7889 15.024V15.06C47.6509 15.618 46.6069 20.676 47.2729 20.892V21H45.5269C44.9689 20.46 46.1929 15.798 42.9349 15.798H39.2449V21H37.6249ZM39.2449 9.57V14.358H42.4669C43.7989 14.358 45.4729 14.196 45.4729 11.964C45.4729 9.732 43.7989 9.57 42.4669 9.57H39.2449ZM52.6177 19.992C54.4537 19.992 55.1377 18.804 55.2997 18.174H56.7397C56.2717 19.884 54.9577 21.252 52.6717 21.252C49.8817 21.252 48.1897 19.29 48.1897 16.41C48.1897 13.35 49.9177 11.568 52.5997 11.568C55.4797 11.568 56.8837 13.53 56.8837 16.788H49.6297C49.6297 18.444 50.6197 19.992 52.6177 19.992ZM52.5997 12.828C50.8717 12.828 49.6297 14.052 49.6297 15.528H55.4437C55.4437 14.052 54.3277 12.828 52.5997 12.828ZM57.1796 11.82H58.7456L61.2836 19.56H61.3016L63.8396 11.82H65.4056L62.1116 21H60.4736L57.1796 11.82ZM70.1204 21V9.57H65.8364V8.13H76.0244V9.57H71.7404V21H70.1204ZM80.9585 14.16C80.9585 13.44 80.5625 12.828 79.0865 12.828C77.3405 12.828 76.7645 13.332 76.6745 14.664H75.2345C75.3245 12.9 76.4225 11.568 79.0865 11.568C80.8325 11.568 82.3985 12.252 82.3985 14.466V18.93C82.3985 19.65 82.5245 20.046 83.4425 19.938V20.946C83.0645 21.072 82.8665 21.09 82.5965 21.09C81.7325 21.09 81.2105 20.856 80.9585 19.848H80.9225C80.3465 20.712 79.3205 21.252 77.8085 21.252C75.9545 21.252 74.7845 20.19 74.7845 18.642C74.7845 16.554 76.3325 16.014 78.7085 15.564C80.2565 15.276 80.9585 15.078 80.9585 14.16ZM77.9525 19.992C79.6625 19.992 80.9585 19.218 80.9585 17.454V15.924C80.6885 16.194 79.8065 16.446 78.8345 16.644C77.0525 17.022 76.2245 17.472 76.2245 18.57C76.2245 19.47 76.7645 19.992 77.9525 19.992ZM83.9423 11.82H85.6523L88.0283 15.33H88.0643L90.4403 11.82H92.1503L88.9103 16.302L92.4743 21H90.7643L88.0643 17.256H88.0283L85.3463 21H83.6363L87.1823 16.302L83.9423 11.82Z" fill="#182230"/>
</svg>
