<svg width="16" height="14" viewBox="0 0 16 14" fill="none" xmlns="http://www.w3.org/2000/svg">
<path d="M12.6673 12.5249L14.6673 10.5249M14.6673 10.5249L12.6673 8.5249M14.6673 10.5249H10.6673M8.00065 8.85824H5.00065C4.07028 8.85824 3.60509 8.85824 3.22656 8.97306C2.37429 9.2316 1.70734 9.89854 1.44881 10.7508C1.33398 11.1293 1.33398 11.5945 1.33398 12.5249M9.66732 3.5249C9.66732 5.18176 8.32417 6.5249 6.66732 6.5249C5.01046 6.5249 3.66732 5.18176 3.66732 3.5249C3.66732 1.86805 5.01046 0.524902 6.66732 0.524902C8.32417 0.524902 9.66732 1.86805 9.66732 3.5249Z" stroke="#CECFD2" stroke-linecap="round" stroke-linejoin="round"/>
</svg>
