<svg width="73" height="12" viewBox="0 0 73 12" fill="none" xmlns="http://www.w3.org/2000/svg">
<path d="M15.6895 0.0385742C15.0955 0.0385742 14.5667 0.151448 14.0974 0.377197C13.6281 0.597005 13.2301 0.911866 12.9033 1.31584C12.5825 1.72575 12.333 2.21883 12.1607 2.80103C11.9944 3.37728 11.9112 4.02482 11.9112 4.73771V6.79321C11.9112 7.51205 11.9944 8.15959 12.1607 8.73584C12.333 9.3121 12.5766 9.80518 12.8974 10.2151C13.2122 10.625 13.5984 10.9339 14.0439 11.1537C14.4954 11.3735 15.0004 11.4805 15.5588 11.4805C16.1351 11.4805 16.6401 11.3973 17.0737 11.231C17.5133 11.0646 17.8817 10.821 18.1728 10.5062C18.4698 10.1854 18.6956 9.79924 18.856 9.3418C19.0164 8.8903 19.1174 8.37346 19.1471 7.7972H17.7332C17.6975 8.24276 17.6381 8.62297 17.549 8.93783C17.4599 9.24675 17.3351 9.50814 17.1688 9.71013C17.0084 9.91211 16.7886 10.0547 16.5272 10.1557C16.2658 10.2448 15.945 10.2923 15.5648 10.2923C15.1549 10.2923 14.8103 10.2032 14.5251 10.025C14.24 9.84082 14.0083 9.59131 13.8301 9.27645C13.6578 8.96159 13.5271 8.58732 13.4499 8.16553C13.3726 7.74373 13.337 7.2863 13.337 6.79321V4.71989C13.337 4.19711 13.3845 3.7159 13.4736 3.28817C13.5687 2.86043 13.7172 2.49805 13.9073 2.19507C14.1034 1.89209 14.3469 1.6604 14.644 1.5C14.941 1.33366 15.2915 1.25049 15.7014 1.25049C16.046 1.25049 16.3371 1.30396 16.5806 1.40495C16.8242 1.5 17.0321 1.65446 17.1925 1.86239C17.3529 2.06437 17.4777 2.32577 17.5668 2.64063C17.6559 2.95549 17.7094 3.33569 17.745 3.77531H19.1589C19.1352 3.17529 19.0401 2.64063 18.8738 2.17725C18.7134 1.71387 18.4817 1.32178 18.1906 1.00692C17.8995 0.69206 17.5431 0.44849 17.1272 0.288089C16.7054 0.121748 16.2301 0.0385742 15.6895 0.0385742ZM50.2469 0.0385742C49.6528 0.0385742 49.1241 0.151448 48.6548 0.377197C48.1855 0.597005 47.7874 0.911866 47.4607 1.31584C47.1399 1.72575 46.8904 2.21883 46.7181 2.80103C46.5518 3.37728 46.4686 4.02482 46.4686 4.73771V6.79321C46.4686 7.51205 46.5518 8.15959 46.7181 8.73584C46.8904 9.3121 47.1399 9.80518 47.4548 10.2151C47.7696 10.625 48.1558 10.9339 48.6013 11.1537C49.0528 11.3735 49.5578 11.4805 50.1162 11.4805C50.6925 11.4805 51.1974 11.3973 51.6311 11.231C52.0707 11.0646 52.439 10.821 52.7361 10.5062C53.0331 10.1854 53.2589 9.79924 53.4193 9.3418C53.5797 8.8903 53.6807 8.37346 53.7104 7.7972H52.2965C52.2608 8.24276 52.2014 8.62297 52.1123 8.93783C52.0232 9.24675 51.8984 9.50814 51.7321 9.71013C51.5658 9.91211 51.3578 10.0547 51.0905 10.1557C50.8291 10.2448 50.5083 10.2923 50.1281 10.2923C49.7182 10.2923 49.3736 10.2032 49.0885 10.025C48.8033 9.84082 48.5716 9.59131 48.3934 9.27645C48.2211 8.96159 48.0904 8.58732 48.0132 8.16553C47.936 7.74373 47.9003 7.2863 47.9003 6.79321V4.71989C47.9003 4.19711 47.9478 3.7159 48.0369 3.28817C48.132 2.86043 48.2805 2.49805 48.4706 2.19507C48.6607 1.89209 48.9102 1.6604 49.2073 1.5C49.5043 1.33366 49.8548 1.25049 50.2647 1.25049C50.6093 1.25049 50.9004 1.30396 51.144 1.40495C51.3875 1.5 51.5955 1.65446 51.7559 1.86239C51.9222 2.06437 52.047 2.32577 52.1301 2.64063C52.2133 2.95549 52.2727 3.33569 52.3024 3.77531H53.7163C53.6925 3.17529 53.5975 2.64063 53.4312 2.17725C53.2648 1.71387 53.0391 1.32178 52.748 1.00692C52.4569 0.69206 52.1004 0.44849 51.6846 0.288089C51.2628 0.121748 50.7875 0.0385742 50.2469 0.0385742ZM23.7511 0.193035L20.1629 11.3379H21.6006L22.4679 8.43286H26.2344L27.1136 11.3379H28.5513L24.9571 0.193035H23.7511ZM30.0662 0.193035V11.3379H31.4682V6.97738H33.6187C34.1534 6.97738 34.6287 6.90015 35.0445 6.75757C35.4604 6.60311 35.8049 6.3833 36.0842 6.09815C36.3693 5.81299 36.5832 5.46249 36.7257 5.04069C36.8743 4.6189 36.9456 4.1377 36.9456 3.60303C36.9456 3.10994 36.8683 2.65251 36.7257 2.2426C36.5832 1.82675 36.3693 1.46436 36.0901 1.16138C35.8109 0.858403 35.4604 0.62077 35.0386 0.448488C34.6227 0.282147 34.1534 0.193035 33.6128 0.193035H30.0662ZM38.0208 0.193035V1.40495H40.9437V11.3379H42.3457V1.39901H45.2745V0.187093H38.0208V0.193035ZM55.5995 0.193035V11.3379H57.0015V6.18726H61.4868V11.3379H62.8948V0.193035H61.4868V4.98128H57.0015V0.193035H55.5995ZM68.1999 0.193035L64.6117 11.3379H66.0493L66.9167 8.43286H70.6831L71.5623 11.3379H73L69.4058 0.193035H68.1999ZM31.4682 1.39901H33.6187C33.9633 1.39901 34.2485 1.45842 34.492 1.58317C34.7356 1.70793 34.9376 1.86833 35.0861 2.07032C35.2465 2.2723 35.3594 2.50993 35.4307 2.7832C35.5079 3.05054 35.5435 3.32381 35.5435 3.60897C35.5435 3.92383 35.5079 4.21493 35.4307 4.48226C35.3594 4.74365 35.2465 4.9694 35.0861 5.16545C34.9316 5.35555 34.7356 5.50407 34.492 5.61101C34.2544 5.71794 33.9633 5.7714 33.6187 5.7714H31.4682V1.39901ZM24.3512 2.15349L25.872 7.22095H22.8363L24.3512 2.15349ZM68.7999 2.15349L70.3207 7.22095H67.2791L68.7999 2.15349ZM2.87533 2.90202C2.52482 2.90202 2.22184 2.99113 1.96639 3.16935C1.71688 3.34758 1.50895 3.59115 1.33667 3.89413L1.31291 3.05054H0V11.332H1.35449V5.40902C1.47925 5.05851 1.66341 4.7793 1.8951 4.57732C2.13273 4.37533 2.43571 4.26839 2.80404 4.26839C2.92285 4.26839 3.02384 4.27433 3.1189 4.28621C3.20801 4.29216 3.309 4.30404 3.41593 4.32186L3.40999 3.00301C3.39217 2.99113 3.35653 2.98519 3.309 2.97331C3.26742 2.95549 3.21989 2.94361 3.17236 2.93767C3.12484 2.93172 3.06543 2.91984 3.01196 2.9139C2.96444 2.90796 2.91691 2.90202 2.87533 2.90202ZM7.43189 2.90202C7.0398 2.90202 6.65959 2.97331 6.29126 3.10995C5.92293 3.24659 5.59619 3.47233 5.31104 3.79313C5.03182 4.10205 4.80607 4.51197 4.62785 5.01693C4.45557 5.51595 4.36646 6.13379 4.36646 6.85856V7.79126C4.36646 8.42098 4.43774 8.97347 4.58626 9.43685C4.73478 9.90023 4.94865 10.2864 5.22192 10.5953C5.50114 10.8983 5.83976 11.1181 6.23779 11.2666C6.63582 11.4151 7.08138 11.4864 7.57446 11.4864C7.93091 11.4864 8.25171 11.4508 8.53092 11.3795C8.81608 11.3082 9.07153 11.2131 9.29134 11.1062C9.51115 10.9874 9.70125 10.8567 9.85571 10.7082C10.0161 10.5597 10.1468 10.4052 10.2597 10.2507L9.55274 9.39526C9.43986 9.5319 9.32105 9.6626 9.19035 9.77548C9.06559 9.88835 8.92301 9.98934 8.76856 10.0725C8.6141 10.1557 8.44775 10.221 8.26359 10.2626C8.07943 10.3101 7.8715 10.3339 7.64575 10.3339C7.01603 10.3339 6.53483 10.1319 6.20215 9.72795C5.86947 9.32398 5.70313 8.68237 5.70313 7.79126V7.60116H10.325V6.81104C10.325 6.18132 10.2716 5.62289 10.1646 5.13574C10.0577 4.6486 9.88542 4.24463 9.65373 3.91195C9.4161 3.57927 9.11906 3.32975 8.75073 3.16341C8.39429 2.98519 7.94873 2.90202 7.43189 2.90202ZM7.43189 4.06641C7.72892 4.06641 7.97249 4.11987 8.16854 4.22681C8.36458 4.33374 8.5131 4.48226 8.62598 4.67831C8.74479 4.87435 8.82796 5.10604 8.87549 5.37337C8.92896 5.64071 8.9646 5.93181 8.98242 6.25261V6.43677H5.72689C5.74471 5.97339 5.80412 5.58724 5.89323 5.27832C5.98234 4.97534 6.1071 4.73177 6.25562 4.55355C6.41008 4.36939 6.58236 4.24463 6.78434 4.17334C6.98039 4.10205 7.19426 4.06641 7.43189 4.06641Z" fill="#A6A6A6"/>
</svg>
