<svg width="33" height="32" viewBox="0 0 33 32" fill="none" xmlns="http://www.w3.org/2000/svg">
<path fill-rule="evenodd" clip-rule="evenodd" d="M32.5 16C32.5 19.8622 31.1316 23.4048 28.8531 26.1693L24.4724 21.8486C24.2271 21.6067 24.2227 21.2123 24.4625 20.965L28.6435 16.6534C28.8721 16.4176 28.8821 16.0448 28.6503 15.8121C24.2267 11.3699 12.9755 7.60284 2.94459 7.49597C5.77557 2.99289 10.7883 0 16.5 0C25.3366 0 32.5 7.16344 32.5 16ZM16.5 32C20.2615 32 23.7198 30.702 26.4515 28.5295L19.9149 21.8553C19.6742 21.6095 19.6762 21.2158 19.9195 20.9726L24.3204 16.5717C24.5193 16.3728 24.5652 16.0646 24.4001 15.8368C21.9145 12.4058 12.1305 8.48016 2.84406 7.65803C2.68383 7.91976 2.53092 8.18645 2.38561 8.45782C9.23564 9.33216 17.3125 12.3103 20.9967 15.6516C21.2506 15.8819 21.2477 16.274 21.0066 16.5176L8.06387 29.5979C10.5131 31.1206 13.4038 32 16.5 32ZM5.39337 27.5171C2.37649 24.6071 0.5 20.5227 0.5 16C0.5 13.404 1.11826 10.9524 2.21557 8.78436C9.12912 10.544 13.9578 12.6105 16.5478 15.6511C16.7518 15.8905 16.7256 16.2441 16.5026 16.4659L5.39337 27.5171Z" fill="white"/>
</svg>
